Coordinates
version=1
nRows=29
nColumns=33
inDegrees=yes

Units are S.I. units (second, meters, Newtons, ...)
Angles are in degrees.

endheader
time	ground_thorax_rot_x	ground_thorax_rot_y	ground_thorax_rot_z	ground_thorax_tx	ground_thorax_ty	ground_thorax_tz	clav_prot_r	clav_elev_r	scapula_abduction_r	scapula_elevation_r	scapula_upward_rot_r	scapula_winging_r	shoulder_elv_r	plane_of_elev_r	axial_rot_r	elbow_flexion_r	pro_sup_r	wrist_flex_r	wrist_dev_r	clav_prot_l	clav_elev_l	scapula_abduction_l	scapula_elevation_l	scapula_upward_rot_l	scapula_winging_l	shoulder_elv_l	plane_of_elev_l	axial_rot_l	elbow_flexion_l	pro_sup_l	wrist_flex_l	wrist_dev_l	
2.5900	38.883729	2.429292	3.803746	-51.500547	789.218286	1.347089	14.837540	43.406638	45.000000	43.789902	-18.286326	-2238.928884	-1373.903304	34.477312	16.473456	367.768817	27.569017	16.614536	14.142997	6.031965	-45.000000	-45.000000	45.000000	-9.598465	1522.178597	-3172.346290	27.471520	6.094149	1080.317210	44.363925	10.846061	-19.531145	
2.6000	38.847851	2.256254	3.817225	-51.787629	789.491272	1.298101	14.634474	43.253275	45.000000	43.755350	-18.134682	-2239.051986	-1373.871583	34.499202	16.455584	367.810486	27.077611	16.607913	14.081362	5.976597	-45.000000	-45.000000	45.000000	-9.403290	1522.307138	-3172.297916	27.436730	6.137689	1080.180283	43.957844	10.939007	-19.456433	
2.6100	38.821251	2.081580	3.845248	-52.173348	789.750558	1.251711	14.436294	43.101173	45.000000	43.756985	-18.065265	-2239.150365	-1373.823113	34.517143	16.401422	367.872870	26.571065	16.601006	13.990856	5.939535	-45.000000	-45.000000	45.000000	-9.217341	1522.447653	-3172.240214	27.389322	6.221566	1080.066949	43.524531	11.047371	-19.375461	
2.6200	38.792240	1.939680	3.907548	-52.778837	789.976230	1.211138	14.317408	43.032508	45.000000	43.793678	-18.054179	-2239.265537	-1373.777571	34.531875	16.287290	367.944488	26.076528	16.614513	13.947038	5.897010	-45.000000	-45.000000	45.000000	-9.102865	1522.623881	-3172.177420	27.376248	6.360003	1079.952967	43.056479	11.137451	-19.308596	
2.6300	38.768980	1.822014	4.000617	-53.611686	790.170667	1.176590	14.252632	43.038411	44.999999	43.880590	-18.142884	-2239.377209	-1373.716957	34.541630	16.112654	368.039684	25.574863	16.642519	13.920458	5.862369	-45.000000	-45.000000	45.000000	-9.056589	1522.827193	-3172.104756	27.383071	6.564750	1079.861585	42.546875	11.219888	-19.249667	
2.6400	38.747829	1.731926	4.131037	-54.695138	790.335238	1.148447	14.244028	43.106254	44.999999	44.005553	-18.338770	-2239.485188	-1373.627360	34.549385	15.873531	368.149345	25.058213	16.683011	13.907235	5.838371	-45.000000	-45.000000	45.000000	-9.077312	1523.058890	-3172.015818	27.410302	6.845687	1079.776269	41.998695	11.299366	-19.196251	
2.6500	38.732014	1.662371	4.291469	-56.022246	790.478995	1.126035	14.276171	43.239425	44.999998	44.174789	-18.652600	-2239.579450	-1373.501920	34.555746	15.584443	368.283750	24.514070	16.733842	13.899080	5.828173	-45.000000	-45.000000	45.000000	-9.166837	1523.311408	-3171.910582	27.453482	7.195896	1079.713332	41.416418	11.374669	-19.148978	
2.6600	38.709198	1.617460	4.491479	-57.573944	790.615864	1.107968	14.333145	43.359109	44.999997	44.347393	-19.049190	-2239.677952	-1373.344944	34.564702	15.270756	368.419688	23.943746	16.791663	13.889063	5.830737	-45.000000	-44.999999	45.000000	-9.291582	1523.593280	-3171.789545	27.506275	7.594333	1079.647400	40.822472	11.454354	-19.108218	
2.6700	38.678894	1.592585	4.722149	-59.334081	790.761648	1.092583	14.404432	43.478923	44.999994	44.526387	-19.510652	-2239.783013	-1373.167662	34.573646	14.967920	368.569216	23.352634	16.858176	13.875264	5.842688	-45.000000	-44.999999	45.000000	-9.449688	1523.899262	-3171.659837	27.566273	8.004658	1079.603330	40.231380	11.528529	-19.082010	
2.6800	38.630069	1.588918	4.988530	-61.290026	790.933580	1.077999	14.485635	43.532804	44.999990	44.683468	-19.996420	-2239.913303	-1372.989363	34.584153	14.699138	368.716071	22.751450	16.933460	13.856417	5.860381	-45.000000	-44.999998	45.000000	-9.611975	1524.241276	-3171.524953	27.628027	8.394294	1079.570382	39.660107	11.600364	-19.075133	
2.6900	38.561147	1.605824	5.289883	-63.433301	791.149078	1.062336	14.568257	43.525353	44.999982	44.816499	-20.500919	-2240.073612	-1372.818558	34.595230	14.487666	368.868705	22.147517	17.018095	13.825354	5.881859	-45.000000	-44.999996	45.000000	-9.773395	1524.620751	-3171.390168	27.685831	8.726047	1079.569733	39.115690	11.663550	-19.093323	
2.7000	38.466340	1.650396	5.631065	-65.760300	791.424535	1.043895	14.664503	43.471491	44.999968	44.902274	-21.016773	-2240.267102	-1372.644375	34.602557	14.334215	369.012794	21.538841	17.106820	13.776472	5.912050	-45.000000	-44.999994	45.000000	-9.940658	1525.031549	-3171.247741	27.738299	8.974461	1079.590866	38.600692	11.716969	-19.134359	
2.7100	38.352678	1.717479	5.998892	-68.271679	791.774686	1.021381	14.768608	43.433590	44.999943	44.957118	-21.564576	-2240.477664	-1372.451070	34.599584	14.251589	369.164241	20.916896	17.196139	13.701660	5.953971	-45.000000	-44.999988	45.000000	-10.129867	1525.455862	-3171.096527	27.782537	9.115795	1079.657542	38.106779	11.753849	-19.197623	
2.7200	38.225805	1.799322	6.386030	-70.971540	792.211687	0.994197	14.886403	43.424943	44.999898	44.986951	-22.144487	-2240.694845	-1372.231359	34.584484	14.239009	369.321674	20.266941	17.281340	13.603165	6.009321	-45.000000	-44.999979	45.000000	-10.349266	1525.886470	-3170.932393	27.815839	9.140065	1079.766672	37.623398	11.773582	-19.279473	
2.7300	38.090570	1.890993	6.792968	-73.865810	792.745063	0.962624	15.006925	43.423199	44.999817	44.998568	-22.754423	-2240.921435	-1371.991897	34.563033	14.310626	369.487019	19.581744	17.360119	13.482758	6.075449	-45.000000	-44.999963	45.000000	-10.593549	1526.326822	-3170.763282	27.833031	9.030942	1079.917639	37.144995	11.776508	-19.379605	
2.7400	37.952770	1.988453	7.217524	-76.960135	793.381150	0.927884	15.132541	43.429288	44.999672	45.000000	-23.389654	-2241.153594	-1371.736253	34.533918	14.465347	369.657465	18.852219	17.428532	13.343217	6.154452	-45.000000	-44.999934	45.000000	-10.869278	1526.774679	-3170.590316	27.829900	8.779707	1080.108749	36.663183	11.762131	-19.494842	
2.7500	37.814795	2.091729	7.657835	-80.257424	794.123358	0.891904	15.254779	43.402565	44.999412	45.000000	-24.043724	-2241.400492	-1371.483731	34.502370	14.708297	369.829183	18.079495	17.486024	13.189767	6.243672	-45.000000	-44.999881	45.000000	-11.167136	1527.237153	-3170.421431	27.805195	8.378070	1080.338957	36.171564	11.732012	-19.624544	
2.7600	37.677332	2.204261	8.115010	-83.756709	794.971635	0.856944	15.374503	43.319940	44.998946	45.000000	-24.714539	-2241.665784	-1371.243594	34.468882	15.029476	369.996411	17.266995	17.532366	13.026733	6.343431	-45.000000	-44.999787	45.000000	-11.487372	1527.720788	-3170.259118	27.756755	7.830509	1080.607737	35.662909	11.687157	-19.766348	
2.7700	37.540162	2.335615	8.593231	-87.453245	795.922695	0.825058	15.503881	43.179586	44.998112	45.000000	-25.419597	-2241.953200	-1371.016261	34.440533	15.412869	370.151998	16.417029	17.565689	12.851317	6.458373	-45.000000	-44.999618	45.000000	-11.842433	1528.225800	-3170.102875	27.687505	7.144335	1080.907234	35.129863	11.628513	-19.914009	
2.7800	37.400303	2.511246	9.110834	-91.338768	796.969634	0.797786	15.689973	43.017103	44.996619	45.000000	-26.229353	-2242.250698	-1370.779944	34.424639	15.827347	370.290733	15.504573	17.579724	12.656649	6.612664	-45.000000	-44.999315	45.000000	-12.295470	1528.745437	-3169.942954	27.604454	6.328625	1081.238191	34.548985	11.554589	-20.054649	
2.7900	37.258678	2.731679	9.659215	-95.402147	798.102517	0.776051	15.926226	42.827754	44.993940	45.000000	-27.135387	-2242.560831	-1370.540631	34.420800	16.279421	370.408446	14.527477	17.576229	12.445675	6.800990	-45.000000	-44.998774	45.000000	-12.838950	1529.277829	-3169.780473	27.509126	5.386122	1081.594480	33.913235	11.468154	-20.184124	
2.8000	37.117612	2.994385	10.235754	-99.629356	799.308334	0.760440	16.195089	42.613384	44.989155	45.000000	-28.125845	-2242.881545	-1370.302047	34.426655	16.784829	370.506698	13.493837	17.559826	12.220472	7.016118	-45.000000	-44.997801	45.000000	-13.462190	1529.825330	-3169.619298	27.396033	4.318833	1081.973077	33.223063	11.371110	-20.301788	
2.8100	36.982194	3.282355	10.820700	-104.003828	800.571875	0.751473	16.451952	42.384258	44.980545	45.000000	-29.141656	-2243.213487	-1370.078538	34.430066	17.362441	370.587517	12.437461	17.539086	11.988652	7.236969	-45.000000	-44.996071	45.000000	-14.124459	1530.382570	-3169.461808	27.259399	3.127390	1082.358971	32.496305	11.265935	-20.410876	
2.8200	36.850991	3.599791	11.421170	-108.504651	801.876158	0.750008	16.683532	42.144606	44.965232	45.000000	-30.181294	-2243.553880	-1369.873269	34.429727	18.012969	370.655838	11.384587	17.519951	11.756914	7.463744	-45.000000	-44.992935	45.000000	-14.831267	1530.951803	-3169.307392	27.096496	1.812263	1082.750497	31.740902	11.151655	-20.512238	
2.8300	36.722111	3.950750	12.036664	-113.107696	803.203581	0.757088	16.850846	41.900119	44.937492	45.000000	-31.215761	-2243.889247	-1369.692462	34.399737	18.709852	370.709232	10.368408	17.509631	11.542060	7.686571	-45.000000	-44.987421	45.000000	-15.580408	1531.528199	-3169.152265	26.905244	0.379116	1083.142180	30.970266	11.028191	-20.612202	
2.8400	36.591209	4.348172	12.685009	-117.783646	804.536931	0.773900	16.958379	41.646943	44.888666	45.000000	-32.259695	-2244.217556	-1369.535112	34.347354	19.440573	370.747133	9.423482	17.510280	11.350875	7.911166	-45.000000	-44.977252	45.000000	-16.385789	1532.117168	-3168.996797	26.686320	-1.148514	1083.532731	30.186960	10.895310	-20.709198	
2.8500	36.450933	4.817089	13.386834	-122.505865	805.860236	0.800437	17.009806	41.390038	44.798795	45.000000	-33.338870	-2244.518366	-1369.387489	34.264674	20.139685	370.770367	8.561267	17.522444	11.205839	8.152491	-45.000000	-44.959852	45.000000	-17.298268	1532.708867	-3168.831653	26.447171	-2.744016	1083.918235	29.381495	10.749969	-20.800604	
2.8600	36.298115	5.369166	14.154667	-127.253428	807.159314	0.834637	17.041322	41.121807	44.644537	45.000000	-34.485109	-2244.787147	-1369.230570	34.181654	20.773029	370.779107	7.793606	17.540525	11.106767	8.425823	-45.000000	-44.926407	45.000000	-18.349429	1533.296400	-3168.652737	26.199697	-4.358764	1084.291729	28.533459	10.595460	-20.874883	
2.8700	36.146972	5.959892	14.926094	-132.021645	808.421928	0.870927	17.034786	40.863307	44.419291	45.000000	-35.605871	-2245.029511	-1369.077900	34.104599	21.356082	370.761507	7.162242	17.562872	11.061073	8.715464	-45.000000	-44.872852	45.000000	-19.464666	1533.855643	-3168.462134	25.953496	-5.912076	1084.634100	27.639214	10.437837	-20.927279	
